<?xml version="1.0" encoding="UTF-8" standalone="no"?>
<!-- Created with Inkscape (http://www.inkscape.org/) -->

<svg
   width="16"
   height="16"
   viewBox="0 0 16 16"
   version="1.1"
   id="svg1"
   inkscape:version="1.3.2 (091e20e, 2023-11-25, custom)"
   sodipodi:docname="QM-ish-monogram-morelike-OM.svg"
   inkscape:export-filename="quick-move-icon.png"
   inkscape:export-xdpi="3072"
   inkscape:export-ydpi="3072"
   xmlns:inkscape="http://www.inkscape.org/namespaces/inkscape"
   xmlns:sodipodi="http://sodipodi.sourceforge.net/DTD/sodipodi-0.dtd"
   xmlns="http://www.w3.org/2000/svg"
   xmlns:svg="http://www.w3.org/2000/svg">
  <sodipodi:namedview
     id="namedview1"
     pagecolor="#ffffff"
     bordercolor="#000000"
     borderopacity="0.25"
     inkscape:showpageshadow="2"
     inkscape:pageopacity="0.0"
     inkscape:pagecheckerboard="0"
     inkscape:deskcolor="#d1d1d1"
     inkscape:document-units="px"
     showgrid="true"
     inkscape:zoom="18.959301"
     inkscape:cx="14.821222"
     inkscape:cy="8.6764804"
     inkscape:window-width="1920"
     inkscape:window-height="1009"
     inkscape:window-x="-8"
     inkscape:window-y="-8"
     inkscape:window-maximized="1"
     inkscape:current-layer="layer1">
    <inkscape:grid
       id="grid1"
       units="px"
       originx="0"
       originy="0"
       spacingx="1"
       spacingy="1"
       empcolor="#0099e5"
       empopacity="0.30196078"
       color="#0099e5"
       opacity="0.14901961"
       empspacing="8"
       enabled="true"
       visible="true" />
  </sodipodi:namedview>
  <defs
     id="defs1" />
  <g
     inkscape:label="Layer 1"
     inkscape:groupmode="layer"
     id="layer1">
    <path
       id="path4"
       style="fill:none;stroke:#ffffff;stroke-width:2;paint-order:markers stroke fill"
       d="m 8,5 4,4 -4,4 M 3,9 h 9"
       sodipodi:nodetypes="ccccc" />
    <circle
       style="fill:none;stroke:#000000;stroke-width:2;-inkscape-stroke:none"
       id="path1"
       cx="6"
       cy="6"
       r="5" />
    <text
       xml:space="preserve"
       style="font-size:11.4849px;font-family:Tahoma;-inkscape-font-specification:Tahoma;display:none;fill:#000000;stroke:#ff0000;stroke-width:1.99999;-inkscape-stroke:none"
       x="-10.015889"
       y="17.827616"
       id="text1"
       transform="matrix(0.87010947,-0.57464034,0.87010947,0.57464034,0,0)"
       inkscape:label="text-original"><tspan
         sodipodi:role="line"
         id="tspan1"
         x="-10.015889"
         y="17.827616"
         style="font-style:normal;font-variant:normal;font-weight:normal;font-stretch:normal;font-family:'Script MT Bold';-inkscape-font-specification:'Script MT Bold, ';fill:#000000;stroke:none;stroke-width:1.99999">M</tspan></text>
    <path
       style="font-size:11.4849px;font-family:'Script MT Bold';-inkscape-font-specification:'Script MT Bold, ';stroke-width:1.99999"
       d="m 1.5979921,16.588278 q -1.25616097,1.351495 -2.28800749,1.351495 -0.62808051,0 -0.95894431,-0.605649 -0.325256,-0.605649 -0.325256,-1.620672 0,-0.785101 0.3196481,-2.159027 0.325256,-1.373926 0.83557139,-2.310439 l 0.32525597,-0.583217 q -0.66733556,0.695374 -1.09353296,1.525338 -0.4261975,0.824356 -1.0206308,2.310439 -0.5888255,1.486083 -0.89165,2.024438 -0.3028246,0.538355 -0.5832176,0.880434 -0.2747853,0.336472 -0.4934919,0.437413 -0.2130987,0.100942 -0.7514534,0.100942 -0.2074909,0 -0.2074909,-0.112157 0,-0.01122 0.072902,-0.353296 0.072902,-0.342079 0.1458044,-1.093533 0.07851,-0.757061 0.1121573,-2.562792 0.033647,-1.81134 0.5271389,-3.101148 -0.5271389,0.600041 -1.0767094,2.792715 l -0.1401965,0.549571 q -0.5776098,2.282399 -1.3234553,3.084324 -0.7458456,0.796316 -1.4636519,0.796316 -0.4430211,0 -0.7794928,-0.280393 -0.3364717,-0.280393 -0.3364717,-0.644904 0,-0.280393 0.4037661,-0.628081 0.4093739,-0.347687 0.5159232,-0.347687 0.123373,0 0.162628,0.08412 0.039255,0.08412 0.1009415,0.465452 0.061687,0.375727 0.1850595,0.493492 0.1289808,0.112157 0.3196481,0.112157 0.4318053,0 0.9533364,-0.86361 0.5215312,-0.869219 0.9533365,-2.680558 l 0.162628,-0.678551 q 0.1962751,-0.829964 0.3869424,-1.323456 0.1906673,-0.493492 0.5047076,-0.986983 0.4542368,-0.7065909 0.5551783,-0.7514538 0.1065493,-0.050471 0.3925503,-0.07851 0.2860009,-0.033647 0.5720018,-0.033647 0.1121573,0 0.1121573,0.1289808 0,0.061687 -0.033647,0.2523542 -0.1065494,0.7851 -0.1009415,1.575809 l 0.011216,1.502907 q 0.011216,1.962751 -0.3140402,3.168441 0.2972166,-0.358903 0.8636107,-1.850594 0.8187477,-2.114164 1.4916911,-3.17405 0.3196481,-0.510315 0.76827707,-0.975768 0.45423678,-0.4710599 0.62808049,-0.5047071 0.59443333,-0.1121572 1.00380722,-0.1121572 0.15141226,0 0.15141226,0.084118 0,0.1177654 -0.18505943,0.5271394 -0.4374132,0.986983 -0.81874779,2.669342 -0.37572672,1.682358 -0.37572672,2.680558 0,1.12718 0.68976697,1.12718 0.56078616,0 1.33467103,-0.953337 z"
       id="text1-9"
       inkscape:label="text-as-path"
       transform="matrix(0.87010947,-0.57464034,0.87010947,0.57464034,0,0)"
       aria-label="M" />
  </g>
</svg>
